<svg width="547.9600097656249px" height="124.439990234375px" xmlns="http://www.w3.org/2000/svg" viewBox="-23.980004882812466 12.780004882812499 547.9600097656249 124.439990234375" style="background: rgba(0, 0, 0, 0) none repeat scroll 0% 0%;" preserveAspectRatio="xMidYMid"><defs><filter id="editing-extrusion" x="-100%" y="-100%" width="300%" height="300%"><feFlood result="color1" flood-color="#444"></feFlood><feConvolveMatrix order="8,8" divisor="1" kernelMatrix="1 0 0 0 0 0 0 0 0 1 0 0 0 0 0 0 0 0 1 0 0 0 0 0 0 0 0 1 0 0 0 0 0 0 0 0 1 0 0 0 0 0 0 0 0 1 0 0 0 0 0 0 0 0 1 0 0 0 0 0 0 0 0 1" in="SourceAlpha" result="extrude"></feConvolveMatrix><feComposite in="color1" in2="extrude" result="comp-extrude" operator="in"></feComposite><feOffset dx="4" dy="4" in="comp-extrude" result="offset-extrude"></feOffset><feMerge><feMergeNode in="offset-extrude"></feMergeNode><feMergeNode in="SourceGraphic"></feMergeNode></feMerge></filter></defs><g filter="url(#editing-extrusion)"><g transform="translate(58.54499650001526, 99)"><path d="M14.21 0L0.51 0L8.32-42.05L8.32-42.05Q14.66-42.75 23.90-42.75L23.90-42.75L23.90-42.75Q33.15-42.75 37.44-40.06L37.44-40.06L37.44-40.06Q41.73-37.38 41.73-31.97L41.73-31.97L41.73-31.97Q41.73-26.56 38.94-23.17L38.94-23.17L38.94-23.17Q36.16-19.78 31.36-18.69L31.36-18.69L31.36-18.69Q32.45-13.38 34.94-9.09L34.94-9.09L34.94-9.09Q37.25-5.06 39.94-3.78L39.94-3.78L39.94-3.78Q38.98-1.09 37.02 0.10L37.02 0.10L37.02 0.10Q35.07 1.28 32.29 1.28L32.29 1.28L32.29 1.28Q29.50 1.28 27.33-0.35L27.33-0.35L27.33-0.35Q25.15-1.98 23.42-4.99L23.42-4.99L23.42-4.99Q19.78-11.52 19.39-21.82L19.39-21.82L19.84-21.82L19.84-21.82Q24.58-21.95 26.94-24.42L26.94-24.42L26.94-24.42Q29.31-26.88 29.31-32.06L29.31-32.06L29.31-32.06Q29.31-38.53 23.87-38.78L23.87-38.78L22.46-38.78L22.46-38.78Q21.89-38.78 21.57-38.72L21.57-38.72L14.21 0ZM47.46-1.92L47.46-1.92L47.46-1.92Q45.95-3.58 45.28-6.21L45.28-6.21L45.28-6.21Q44.61-8.83 44.61-13.12L44.61-13.12L44.61-13.12Q44.61-17.41 46.08-21.31L46.08-21.31L46.08-21.31Q47.55-25.22 50.24-28.03L50.24-28.03L50.24-28.03Q55.74-33.92 64.83-33.92L64.83-33.92L64.83-33.92Q68.10-33.92 70.46-32.83L70.46-32.83L81.41-33.92L76.67-8.96L76.67-8.96Q76.48-8.19 76.48-6.78L76.48-6.78L76.48-6.78Q76.48-5.38 77.34-4.48L77.34-4.48L77.34-4.48Q78.21-3.58 79.49-3.46L79.49-3.46L79.49-3.46Q78.85-1.28 76.51 0L76.51 0L76.51 0Q74.18 1.28 71.55 1.28L71.55 1.28L71.55 1.28Q68.93 1.28 67.17 0.29L67.17 0.29L67.17 0.29Q65.41-0.70 64.90-2.37L64.90-2.37L64.90-2.37Q63.87-0.77 61.70 0.26L61.70 0.26L61.70 0.26Q59.52 1.28 56.61 1.28L56.61 1.28L56.61 1.28Q53.70 1.28 51.33 0.51L51.33 0.51L51.33 0.51Q48.96-0.26 47.46-1.92ZM60.96-27.90L60.96-27.90L60.96-27.90Q60.22-26.75 59.58-24.80L59.58-24.80L59.58-24.80Q58.94-22.85 57.89-17.63L57.89-17.63L57.89-17.63Q56.83-12.42 56.83-8.70L56.83-8.70L56.83-8.70Q56.83-4.99 57.41-3.90L57.41-3.90L57.41-3.90Q57.98-2.82 59.01-2.82L59.01-2.82L59.01-2.82Q61.06-2.82 62.56-4.77L62.56-4.77L62.56-4.77Q64.06-6.72 64.64-10.18L64.64-10.18L68.03-28.93L68.03-28.93Q66.69-30.08 65.12-30.08L65.12-30.08L65.12-30.08Q63.55-30.08 62.62-29.57L62.62-29.57L62.62-29.57Q61.70-29.06 60.96-27.90ZM117.06-7.10L117.06-7.10L117.06-7.10Q117.06-4.29 119.94-3.46L119.94-3.46L119.94-3.46Q119.23-1.09 116.48 0.19L116.48 0.19L116.48 0.19Q114.18 1.28 111.65 1.28L111.65 1.28L111.65 1.28Q109.12 1.28 107.81 0.61L107.81 0.61L107.81 0.61Q106.50-0.06 105.79-1.15L105.79-1.15L105.79-1.15Q104.64-2.82 104.64-5.95L104.64-5.95L104.64-5.95Q104.64-7.81 105.66-12.93L105.66-12.93L106.56-17.79L106.56-17.79Q107.65-23.36 107.65-25.41L107.65-25.41L107.65-25.41Q107.65-28.99 105.66-28.99L105.66-28.99L105.66-28.99Q103.17-28.99 101.57-25.34L101.57-25.34L101.57-25.34Q100.93-23.94 100.48-21.82L100.48-21.82L96.13 0L83.26 1.28L92.29-44.80L105.15-46.08L104.64-43.52L104.64-43.52Q102.85-33.66 101.31-30.34L101.31-30.34L101.31-30.34Q104.90-33.92 111.49-33.92L111.49-33.92L111.49-33.92Q118.46-33.92 119.74-29.31L119.74-29.31L119.74-29.31Q120.19-27.84 120.19-26.56L120.19-26.56L120.19-26.56Q120.19-25.28 120.10-24.29L120.10-24.29L120.10-24.29Q120.00-23.30 119.68-21.50L119.68-21.50L118.85-16.90L117.38-9.66L117.38-9.66Q117.06-8.19 117.06-7.10ZM145.66-2.69L145.66-2.69L145.66-2.69Q142.59 1.28 134.98 1.28L134.98 1.28L134.98 1.28Q131.01 1.28 128.13-1.12L128.13-1.12L128.13-1.12Q125.25-3.52 125.25-6.98L125.25-6.98L125.25-6.98Q125.25-8.90 125.44-9.86L125.44-9.86L129.73-32.64L142.72-33.92L138.05-9.22L138.05-9.22Q137.79-7.81 137.79-6.98L137.79-6.98L137.79-6.98Q137.79-3.26 140.03-3.26L140.03-3.26L140.03-3.26Q142.53-3.26 144.32-6.66L144.32-6.66L144.32-6.66Q144.90-7.74 145.15-9.15L145.15-9.15L149.70-32.64L162.30-33.92L157.57-8.96L157.57-8.96Q157.38-8 157.38-6.98L157.38-6.98L157.38-6.98Q157.38-5.95 157.95-4.83L157.95-4.83L157.95-4.83Q158.53-3.71 160.38-3.46L160.38-3.46L160.38-3.46Q160-1.92 158.66-0.90L158.66-0.90L158.66-0.90Q155.84 1.28 152.80 1.28L152.80 1.28L152.80 1.28Q149.76 1.28 147.97 0.19L147.97 0.19L147.97 0.19Q146.18-0.90 145.66-2.69ZM181.06-3.52L181.06-3.52L181.06-3.52Q179.07 1.28 172.74 1.28L172.74 1.28L172.74 1.28Q169.54 1.28 167.49-0.96L167.49-0.96L167.49-0.96Q165.82-2.82 165.82-4.93L165.82-4.93L165.82-4.93Q165.82-9.73 168.06-20.22L168.06-20.22L172.74-44.80L185.73-46.08L179.52-13.70L179.52-13.70Q178.43-8.96 178.43-7.30L178.43-7.30L178.43-7.30Q178.43-3.65 181.06-3.52ZM227.78 1.28L227.78 1.28L227.78 1.28Q219.58 1.28 218.82-10.37L218.82-10.37L207.81-10.37L207.81-10.37Q206.53-7.42 205.63-4.86L205.63-4.86L203.97 0L195.01 0L215.17-42.24L228.93-42.24L231.62-11.14L231.62-11.14Q232.26-4.42 234.82-2.43L234.82-2.43L234.82-2.43Q232.96 1.28 227.78 1.28ZM213.31-23.17L209.79-15.04L218.62-15.04L217.86-31.49L217.86-33.22L213.31-23.17ZM257.66-22.46L257.66-22.46L257.66-22.46Q258.56-24.83 258.56-26.88L258.56-26.88L258.56-26.88Q258.56-30.66 255.49-30.66L255.49-30.66L255.49-30.66Q253.89-30.66 252.58-29.22L252.58-29.22L252.58-29.22Q251.26-27.78 251.26-25.98L251.26-25.98L251.26-25.98Q251.26-24.70 252.29-23.68L252.29-23.68L252.29-23.68Q253.76-22.27 257.54-19.97L257.54-19.97L257.54-19.97Q261.31-17.66 262.75-15.78L262.75-15.78L262.75-15.78Q264.19-13.89 264.19-11.30L264.19-11.30L264.19-11.30Q264.19-8.70 262.94-6.34L262.94-6.34L262.94-6.34Q261.70-3.97 259.46-2.30L259.46-2.30L259.46-2.30Q254.66 1.28 246.98 1.28L246.98 1.28L246.98 1.28Q242.82 1.28 239.62-0.90L239.62-0.90L239.62-0.90Q236.42-3.01 236.42-5.50L236.42-5.50L236.42-5.50Q236.42-8 238.24-9.47L238.24-9.47L238.24-9.47Q240.06-10.94 242.75-10.94L242.75-10.94L242.75-10.94Q245.44-10.94 247.10-9.92L247.10-9.92L247.10-9.92Q246.27-7.81 246.27-6.40L246.27-6.40L246.27-6.40Q246.27-2.18 249.86-2.18L249.86-2.18L249.86-2.18Q251.39-2.18 252.42-3.14L252.42-3.14L252.42-3.14Q253.44-4.10 253.44-5.76L253.44-5.76L253.44-5.76Q253.44-9.02 247.94-12.48L247.94-12.48L247.94-12.48Q243.46-15.42 242.43-16.58L242.43-16.58L242.43-16.58Q240.70-18.62 240.70-21.18L240.70-21.18L240.70-21.18Q240.70-23.74 241.92-26.18L241.92-26.18L241.92-26.18Q243.14-28.61 245.38-30.34L245.38-30.34L245.38-30.34Q250.05-33.92 258.18-33.92L258.18-33.92L258.18-33.92Q262.34-33.92 264.80-32.26L264.80-32.26L264.80-32.26Q267.26-30.59 267.26-27.78L267.26-27.78L267.26-27.78Q267.26-24.96 265.57-23.36L265.57-23.36L265.57-23.36Q263.87-21.76 260.80-21.76L260.80-21.76L260.80-21.76Q258.69-21.76 257.66-22.46ZM317.38-10.69L317.38-10.69Q313.15-4.86 309.09-1.79L309.09-1.79L309.09-1.79Q305.02 1.28 300.83 1.28L300.83 1.28L300.83 1.28Q296.64 1.28 295.17 0.45L295.17 0.45L295.17-13.63L295.17-13.63Q291.52-3.90 284.99-0.13L284.99-0.13L284.99-0.13Q282.62 1.28 280.38 1.28L280.38 1.28L280.38 1.28Q276.10 1.28 274.24 0.45L274.24 0.45L274.24 0.45Q273.79-14.21 273.41-18.27L273.41-18.27L273.41-18.27Q273.02-22.34 272.70-24.83L272.70-24.83L272.70-24.83Q272.06-29.82 269.89-31.87L269.89-31.87L269.89-31.87Q272.64-33.92 276.48-33.92L276.48-33.92L276.48-33.92Q283.90-33.92 284.93-24.70L284.93-24.70L284.93-24.70Q285.18-22.53 285.18-20.22L285.18-20.22L285.18-20.22Q285.18-16.77 284.42-4.74L284.42-4.74L284.42-4.74Q285.95-5.44 287.58-7.97L287.58-7.97L287.58-7.97Q289.22-10.50 290.56-13.95L290.56-13.95L290.56-13.95Q293.57-21.95 293.57-28.86L293.57-28.86L293.57-28.86Q293.57-29.95 293.28-31.10L293.28-31.10L293.28-31.10Q292.99-32.26 292.67-32.58L292.67-32.58L292.67-32.58Q294.91-33.92 298.34-33.92L298.34-33.92L298.34-33.92Q301.76-33.92 303.39-31.58L303.39-31.58L303.39-31.58Q305.02-29.25 305.47-24.96L305.47-24.96L305.47-24.96Q305.98-19.52 305.98-16.26L305.98-16.26L305.98-16.26Q305.98-11.71 305.54-4.99L305.54-4.99L305.54-4.99Q308.74-7.30 311.36-14.85L311.36-14.85L311.36-14.85Q313.98-22.40 313.98-27.78L313.98-27.78L313.98-27.78Q313.98-30.14 313.60-31.55L313.60-31.55L313.60-31.55Q315.71-33.92 319.36-33.92L319.36-33.92L319.36-33.92Q321.60-33.92 323.23-32.70L323.23-32.70L323.23-32.70Q324.86-31.49 324.86-29.22L324.86-29.22L324.86-29.22Q324.86-26.94 324.19-24.51L324.19-24.51L324.19-24.51Q323.52-22.08 322.43-19.58L322.43-19.58L322.43-19.58Q320.32-14.59 317.38-10.69L317.38-10.69ZM341.95-3.52L341.95-3.52L341.95-3.52Q339.97 1.28 333.63 1.28L333.63 1.28L333.63 1.28Q330.37 1.28 328.32-0.96L328.32-0.96L328.32-0.96Q326.59-2.94 326.59-4.93L326.59-4.93L326.59-4.93Q326.59-10.11 328.96-20.22L328.96-20.22L331.33-32.64L344.32-33.92L340.42-13.70L340.42-13.70Q339.33-8.96 339.33-7.30L339.33-7.30L339.33-7.30Q339.33-3.65 341.95-3.52ZM332.48-41.54L332.48-41.54L332.48-41.54Q332.48-44.03 334.56-45.38L334.56-45.38L334.56-45.38Q336.64-46.72 339.65-46.72L339.65-46.72L339.65-46.72Q342.66-46.72 344.48-45.38L344.48-45.38L344.48-45.38Q346.30-44.03 346.30-41.54L346.30-41.54L346.30-41.54Q346.30-39.04 344.29-37.76L344.29-37.76L344.29-37.76Q342.27-36.48 339.26-36.48L339.26-36.48L339.26-36.48Q336.26-36.48 334.37-37.76L334.37-37.76L334.37-37.76Q332.48-39.04 332.48-41.54ZM374.46 1.28L374.46 1.28L374.46 1.28Q366.72 1.28 366.72-4.74L366.72-4.74L366.72-4.74Q366.78-6.40 367.30-9.22L367.30-9.22L368.45-15.10L368.45-15.10Q370.18-23.42 370.18-25.28L370.18-25.28L370.18-25.28Q370.18-28.99 368-28.99L368-28.99L368-28.99Q364.35-28.99 362.43-19.46L362.43-19.46L358.66 0L345.79 1.28L352.45-32.70L362.94-33.92L361.92-27.65L361.92-27.65Q364.93-33.92 374.14-33.92L374.14-33.92L374.14-33.92Q378.62-33.92 380.51-32.03L380.51-32.03L380.51-32.03Q382.40-30.14 382.40-25.92L382.40-25.92L382.40-25.92Q382.40-21.95 380.35-12.67L380.35-12.67L380.35-12.67Q379.39-8.51 379.39-6.94L379.39-6.94L379.39-6.94Q379.39-5.38 380.26-4.48L380.26-4.48L380.26-4.48Q381.12-3.58 382.40-3.46L382.40-3.46L382.40-3.46Q381.76-1.28 379.55 0L379.55 0L379.55 0Q377.34 1.28 374.46 1.28Z" fill="#ccc"></path></g></g><style>text {
  font-size: 64px;
  font-family: Arial Black;
  dominant-baseline: central;
  text-anchor: middle;
}</style></svg>